<svg width="512" height="512" viewBox="0 0 512 512" xmlns="http://www.w3.org/2000/svg">
  <!-- Background circle with app theme color -->
  <circle cx="256" cy="256" r="256" fill="#2196f3"/>
  
  <!-- Telegram-style paper plane icon -->
  <path d="M256 64C150.13 64 64 150.13 64 256s86.13 192 192 192 192-86.13 192-192S361.87 64 256 64zm89.39 121.85l-27.09 127.85c-1.95 9.12-7.32 11.4-14.81 7.16l-41.12-30.33-19.84 19.09c-2.12 2.12-4.07 4.07-8.3 4.07l2.93-41.87 76.15-68.82c3.26-2.93-.65-4.56-5.23-1.63l-94.08 59.35-40.56-12.69c-8.79-2.77-8.96-8.79 1.79-13.02l158.49-61.15c7.32-2.77 13.83 1.79 11.67 13.19z" fill="white"/>
</svg>